<svg width="303" height="338" viewBox="0 0 303 338" fill="none" xmlns="http://www.w3.org/2000/svg">
<path d="M270.055 228.347C268.133 216.649 256.977 208.743 246.665 204.79C239.008 202.03 231.139 200.202 223.05 199.306C214.962 198.41 206.883 198.467 198.811 199.488C183.581 201.431 169.837 207.92 155.899 213.941C141.962 207.92 128.212 201.415 112.982 199.488C104.909 198.472 96.8313 198.415 88.7428 199.311C80.6543 200.207 72.7845 202.035 65.1334 204.79H65.1282L65.123 204.795C64.7115 204.92 64.3157 205.087 63.9355 205.295C54.7272 209.066 46.0605 215.467 42.5709 225.108C38.8886 235.274 44.2011 245.941 53.2272 251.113C63.7428 257.139 76.3105 255.092 87.5345 252.54C99.0865 249.785 110.373 246.175 121.389 241.722C133.003 237.16 144.415 232.097 155.894 227.207C176.873 236.155 197.717 245.837 219.878 251.483C230.951 254.3 243.727 257.337 254.764 252.894C264.805 248.853 271.878 239.467 270.055 228.347ZM97.8678 237.04C88.6334 239.873 78.5397 243.014 68.7845 242.806C62.8053 242.675 54.4876 239.931 53.6855 232.925C52.7949 225.149 62.1855 219.014 68.3938 216.639H68.399C75.3365 214.097 82.4824 212.405 89.8261 211.561C97.1699 210.717 104.508 210.738 111.847 211.634C121.826 213.233 131.378 216.202 140.503 220.535C126.592 226.806 112.378 232.306 97.8678 237.04ZM246.534 242.514C237.159 244.113 226.639 240.722 217.706 238.16C208.295 235.389 199.055 232.139 189.982 228.405C183.712 225.879 177.498 223.212 171.29 220.535C180.42 216.202 189.972 213.238 199.946 211.634C207.284 210.738 214.623 210.712 221.967 211.561C229.311 212.405 236.456 214.097 243.399 216.639C249.316 218.905 257.05 223.941 258.066 230.79C259.045 237.415 252.196 241.55 246.534 242.514Z" fill="#01BF62"/>
<path d="M160.915 62.066C173.982 58.4983 179.711 43.5972 179.847 31.3056C179.727 20.2431 175.253 7.02433 164.524 1.9462C153.904 -3.07984 142.894 2.14412 137.086 11.7118C135.555 14.4202 134.357 17.2691 133.493 20.2535C132.628 23.2431 132.118 26.29 131.967 29.3993C131.816 32.5087 132.029 35.5868 132.602 38.6441C133.175 41.7066 134.092 44.6545 135.352 47.4983C139.665 57.3316 149.779 65.1025 160.915 62.066ZM155.008 12.1545C155.258 12.0972 155.451 12.0243 155.008 12.1545V12.1545ZM146.175 20.8368C146.873 19.2587 147.727 17.7639 148.727 16.3577C148.79 16.3264 149.779 15.1702 149.899 15.0556C150.185 14.7587 150.482 14.4775 150.79 14.2014C150.941 14.066 151.04 13.9722 151.112 13.9045C151.196 13.8525 151.29 13.7952 151.446 13.691C152.008 13.3212 152.597 12.9879 153.211 12.7014C153.336 12.7014 154.415 12.3368 154.696 12.2483L154.868 12.2014C155.305 12.165 155.743 12.165 156.185 12.1597C156.264 12.1597 156.524 12.1806 156.743 12.1962C157.024 12.2587 157.56 12.3629 157.649 12.3889C157.602 12.3733 158.258 12.6025 158.571 12.6962C158.842 12.8316 159.279 13.04 159.352 13.0816C159.691 13.2743 160.019 13.4827 160.347 13.691C160.534 13.8108 160.633 13.8733 160.701 13.9097C160.795 14.0139 160.894 14.1129 161.003 14.2014C162.446 15.3993 163.592 16.8264 164.441 18.4983C166.581 22.4983 167.623 26.7639 167.56 31.3004V31.3056C167.592 35.3472 166.769 39.2118 165.092 42.8941C163.894 45.7222 161.982 47.9358 159.352 49.5243C159.123 49.6545 158.883 49.7691 158.644 49.8837C158.472 49.9462 158.071 50.1025 157.92 50.1389C157.555 50.2275 157.185 50.3212 156.821 50.4097L156.784 50.4202C156.774 50.4202 156.769 50.4202 156.758 50.4202C156.159 50.3681 155.566 50.3629 154.967 50.4045C154.691 50.3472 154.415 50.29 154.144 50.217C153.993 50.1754 153.373 49.9462 153.159 49.8785C151.889 49.2795 150.758 48.4827 149.758 47.4931C148.764 46.5035 147.961 45.3733 147.352 44.1077C146.42 42.3264 145.685 40.467 145.154 38.5243C144.623 36.5868 144.305 34.6129 144.206 32.6025C144.107 30.592 144.222 28.5972 144.55 26.6129C144.883 24.6285 145.425 22.7014 146.175 20.8368Z" fill="#01BF62"/>
<path d="M145.04 186.905L151.555 193.42C152.086 193.983 152.711 194.42 153.425 194.733C154.139 195.04 154.883 195.196 155.659 195.201C155.743 195.207 155.826 195.201 155.909 195.207C155.977 195.201 156.05 195.207 156.123 195.201C156.899 195.201 157.649 195.045 158.362 194.733C159.081 194.425 159.706 193.988 160.237 193.42L206.389 147.274L212.899 140.759C213.18 140.472 213.43 140.16 213.649 139.821C213.868 139.488 214.05 139.134 214.201 138.759C214.352 138.389 214.467 138.004 214.545 137.613C214.623 137.217 214.659 136.816 214.659 136.415C214.659 136.014 214.623 135.618 214.545 135.222C214.467 134.826 214.352 134.446 214.201 134.071C214.05 133.701 213.868 133.347 213.649 133.009C213.43 132.675 213.18 132.363 212.899 132.071L166.753 85.9254L160.237 79.415C159.951 79.1337 159.639 78.8837 159.305 78.665C158.967 78.4462 158.612 78.2587 158.237 78.1077C157.868 77.9566 157.482 77.8472 157.092 77.7691C156.696 77.691 156.3 77.6545 155.894 77.6545C155.493 77.6545 155.097 77.691 154.701 77.7691C154.31 77.8472 153.925 77.9566 153.555 78.1077C153.18 78.2587 152.826 78.4462 152.487 78.665C152.154 78.8837 151.842 79.1337 151.555 79.415L105.404 125.561L98.8937 132.071C98.6125 132.363 98.3625 132.675 98.1437 133.009C97.925 133.347 97.7427 133.701 97.5916 134.071C97.4406 134.446 97.326 134.826 97.2479 135.222C97.1698 135.618 97.1333 136.014 97.1333 136.415C97.1333 136.816 97.1698 137.217 97.2479 137.613C97.326 138.004 97.4406 138.389 97.5916 138.759C97.7427 139.134 97.925 139.488 98.1437 139.821C98.3625 140.16 98.6125 140.472 98.8937 140.759L145.04 186.905ZM197.701 134.248L199.868 136.415L155.894 180.389L114.092 138.587L111.925 136.415L153.727 94.6129L155.899 92.4462L197.701 134.248Z" fill="#01BF62"/>
<path d="M21.4375 296.767C24.4063 296.767 27.3333 297.382 30.2083 298.6C33.0938 299.824 35.5521 301.47 37.5833 303.538L31.6875 310.517C30.3802 308.923 28.8177 307.658 27 306.725C25.1927 305.783 23.3958 305.309 21.6042 305.309C18.4375 305.309 15.7813 306.429 13.6458 308.663C11.5052 310.903 10.4375 313.658 10.4375 316.934C10.4375 320.298 11.5052 323.111 13.6458 325.371C15.7813 327.621 18.4375 328.746 21.6042 328.746C23.2813 328.746 25.026 328.33 26.8333 327.496C28.651 326.653 30.2708 325.496 31.6875 324.038L37.6458 330.35C35.4635 332.559 32.8958 334.34 29.9375 335.684C26.9792 337.017 24.026 337.684 21.0833 337.684C15.0521 337.684 10.0313 335.72 6.02083 331.788C2.00521 327.845 0 322.934 0 317.059C0 311.298 2.04167 306.475 6.125 302.6C10.2188 298.715 15.3229 296.767 21.4375 296.767Z" fill="#01BF62"/>
<path d="M82.2752 305.142H61.0669V313.101H80.2127V321.121H61.0669V329.205H82.9002V337.226H50.8794V297.121H82.2752V305.142Z" fill="#01BF62"/>
<path d="M113.478 296.663C119.478 296.663 124.748 298.153 129.29 301.121L125.457 309.1C123.358 307.882 121.103 306.882 118.686 306.1C116.28 305.309 114.259 304.913 112.623 304.913C109.675 304.913 108.207 305.887 108.207 307.83C108.207 309.095 108.925 310.111 110.373 310.871C111.832 311.637 113.603 312.298 115.686 312.85C117.769 313.408 119.853 314.074 121.936 314.85C124.019 315.632 125.78 316.903 127.228 318.663C128.686 320.413 129.415 322.632 129.415 325.309C129.415 329.173 127.899 332.184 124.873 334.35C121.858 336.507 118.024 337.58 113.373 337.58C110.05 337.58 106.769 337.007 103.519 335.85C100.269 334.699 97.4411 333.132 95.04 331.142L98.9984 323.309C101.009 325.059 103.394 326.496 106.144 327.621C108.894 328.746 111.337 329.309 113.478 329.309C115.129 329.309 116.415 329.017 117.332 328.434C118.248 327.84 118.707 326.97 118.707 325.83C118.707 324.72 118.175 323.798 117.123 323.059C116.066 322.309 114.754 321.757 113.186 321.392C111.629 321.017 109.936 320.528 108.103 319.913C106.269 319.304 104.566 318.637 102.998 317.913C101.425 317.194 100.113 316.038 99.0609 314.455C98.0192 312.871 97.4984 310.97 97.4984 308.746C97.4984 305.08 98.9567 302.153 101.873 299.955C104.8 297.762 108.67 296.663 113.478 296.663Z" fill="#01BF62"/>
<path d="M153.753 337.226H143.565V297.121H153.753V337.226Z" fill="#01BF62"/>
<path d="M203.545 303.642L182.128 329.142H203.899V337.226H168.482V330.684L189.961 305.205H169.232V297.121H203.545V303.642Z" fill="#FFDE59"/>
<path d="M249.554 305.142H228.346V313.101H247.492V321.121H228.346V329.205H250.179V337.226H218.158V297.121H249.554V305.142Z" fill="#FFDE59"/>
<path d="M302.361 337.226H293.361L274.923 312.538V337.226H265.361V297.121H274.34L292.861 321.871V297.121H302.361V337.226Z" fill="#FFDE59"/>
</svg>
